<?xml version="1.0" encoding="UTF-8"?>
<svg xmlns="http://www.w3.org/2000/svg" xmlns:xlink="http://www.w3.org/1999/xlink" width="200px" height="46px" viewBox="0 0 199 46" version="1.1">
<g id="surface1">
<path style=" stroke:none;fill-rule:nonzero;fill:rgb(55.686277%,21.176471%,2.352941%);fill-opacity:1;" d="M 4.878906 25.28125 L 6.910156 25.824219 C 7.628906 25.824219 9.164062 25.480469 11.519531 24.800781 C 11.957031 22.761719 12.65625 19.855469 13.613281 16.09375 C 15.128906 10.289062 15.886719 7.066406 15.886719 6.425781 C 15.886719 5.785156 15.6875 5.464844 15.289062 5.464844 C 14.808594 5.464844 14.105469 5.585938 13.171875 5.824219 C 12.230469 6.066406 11.757812 6.386719 11.757812 6.785156 C 11.757812 7.066406 12.070312 7.546875 12.691406 8.226562 C 13.304688 8.90625 13.613281 9.375 13.613281 9.632812 C 13.613281 9.898438 13.59375 10.070312 13.554688 10.148438 C 10.441406 14.113281 7.667969 17.015625 5.238281 18.855469 C 4.839844 19.175781 4.4375 19.335938 4.039062 19.335938 C 3.164062 19.335938 2.542969 18.734375 2.183594 17.535156 C 2.105469 17.253906 1.90625 16.773438 1.585938 16.09375 C 0.910156 14.574219 0.570312 13.417969 0.570312 12.636719 C 0.570312 11.859375 0.890625 11.109375 1.527344 10.390625 C 4.320312 7.585938 7.789062 4.683594 11.9375 1.679688 C 12.417969 1.28125 13.074219 1.082031 13.914062 1.082031 C 14.75 1.082031 15.6875 1.25 16.722656 1.585938 C 17.761719 1.929688 18.691406 2.984375 19.511719 4.742188 C 20.324219 6.503906 20.734375 7.875 20.734375 8.851562 C 20.734375 9.835938 20.574219 11.136719 20.253906 12.753906 C 19.933594 14.378906 19.175781 17.835938 17.980469 23.121094 L 20.914062 22.460938 C 21.671875 15.894531 22.988281 9.289062 24.859375 2.640625 C 24.941406 2.402344 24.980469 2.167969 24.980469 1.945312 C 24.980469 1.730469 24.882812 1.441406 24.683594 1.082031 C 24.480469 0.71875 24.382812 0.449219 24.382812 0.265625 C 24.382812 0.0898438 24.496094 0 24.71875 0 C 24.933594 0 25.179688 0.101562 25.460938 0.300781 C 27.09375 1.382812 27.914062 2.421875 27.914062 3.421875 C 27.914062 3.902344 27.851562 4.382812 27.734375 4.863281 C 26.65625 9.828125 25.820312 15.394531 25.21875 21.558594 C 25.460938 21.519531 25.796875 21.5 26.238281 21.5 C 26.675781 21.5 27.464844 21.707031 28.605469 22.125 C 29.738281 22.546875 30.304688 23.078125 30.304688 23.71875 C 30.304688 23.960938 30.167969 24.199219 29.886719 24.441406 C 29.609375 24.679688 28.949219 25.25 27.914062 26.148438 C 26.875 27.050781 26.175781 27.5625 25.820312 27.683594 C 25.460938 27.804688 25.082031 27.925781 24.683594 28.042969 C 24.441406 30.6875 24.324219 32.496094 24.324219 33.472656 C 24.324219 34.457031 24.480469 35.820312 24.800781 37.558594 C 25.121094 39.300781 25.28125 40.441406 25.28125 40.980469 C 25.28125 41.523438 25.160156 42.15625 24.921875 42.878906 C 24.683594 43.597656 24.304688 43.957031 23.785156 43.957031 C 23.464844 43.957031 23.046875 43.738281 22.527344 43.296875 C 20.734375 41.617188 19.835938 39.761719 19.835938 37.738281 C 19.835938 35.71875 19.996094 32.949219 20.3125 29.425781 C 19.078125 29.746094 17.722656 30.167969 16.246094 30.6875 C 15.207031 35.210938 14.691406 37.992188 14.691406 39.035156 L 15.289062 43.117188 C 15.289062 43.757812 15.089844 44.398438 14.691406 45.039062 C 14.292969 45.679688 13.84375 46 13.351562 46 C 12.847656 46 12.4375 45.820312 12.117188 45.460938 C 11.796875 45.097656 11.453125 44.539062 11.078125 43.777344 C 10.691406 43.015625 10.5 42.617188 10.5 42.578125 C 9.742188 41.175781 9.363281 39.894531 9.363281 38.734375 C 9.363281 37.574219 9.585938 35.449219 10.023438 32.367188 C 8.746094 32.207031 7.847656 31.808594 7.332031 31.167969 C 6.8125 30.527344 6.207031 29.574219 5.511719 28.308594 C 4.808594 27.050781 4.457031 26.230469 4.457031 25.847656 C 4.457031 25.46875 4.597656 25.28125 4.878906 25.28125 Z M 44.785156 28.945312 C 44.785156 33.789062 43.390625 38.09375 40.597656 41.855469 C 39.597656 43.136719 38.496094 43.777344 37.28125 43.777344 C 36.0625 43.777344 35.09375 43.476562 34.375 42.878906 C 31.78125 40.714844 30.484375 37.011719 30.484375 31.769531 C 30.484375 28.125 31.460938 23.480469 33.417969 17.835938 C 33.578125 17.433594 33.714844 17.183594 33.835938 17.078125 C 33.957031 16.984375 34.167969 16.933594 34.46875 16.933594 C 34.765625 16.933594 35.132812 16.722656 35.570312 16.296875 C 36.007812 15.882812 36.738281 15.671875 37.761719 15.671875 C 38.773438 15.671875 39.800781 16.054688 40.835938 16.816406 C 41.875 17.574219 42.632812 18.597656 43.109375 19.878906 C 44.226562 22.878906 44.785156 25.902344 44.785156 28.945312 M 39.820312 25.042969 C 39.820312 21.359375 39.359375 19.515625 38.441406 19.515625 C 38.003906 19.515625 37.605469 19.855469 37.246094 20.539062 C 35.652344 24.339844 34.851562 28.886719 34.851562 34.167969 C 34.851562 35.492188 34.871094 36.492188 34.914062 37.171875 C 38.183594 34.648438 39.820312 30.605469 39.820312 25.042969 Z M 66.144531 35.25 L 66.621094 22.820312 C 66.621094 22.339844 66.582031 22.097656 66.503906 22.097656 C 66.34375 22.097656 66.164062 22.417969 65.964844 23.058594 C 65.246094 24.902344 63.570312 30.648438 60.9375 40.296875 C 60.539062 41.695312 60.121094 42.398438 59.683594 42.398438 C 59.484375 42.398438 59.125 42.238281 58.605469 41.917969 C 56.570312 40.433594 55.554688 38.613281 55.554688 36.453125 C 55.554688 34.730469 55.832031 32.386719 56.390625 29.425781 C 57.03125 25.742188 57.347656 23.75 57.347656 23.445312 C 57.347656 23.148438 57.300781 23 57.207031 23 C 57.101562 23 56.949219 23.199219 56.75 23.601562 C 54.714844 28.484375 53.480469 34.308594 53.042969 41.074219 C 52.960938 42.277344 52.5625 42.878906 51.84375 42.878906 C 50.886719 42.878906 50.03125 42.316406 49.273438 41.195312 C 47.875 39.195312 47.179688 36.953125 47.179688 34.46875 C 47.179688 32.910156 47.371094 30.925781 47.753906 28.523438 C 48.128906 26.121094 48.355469 24.660156 48.433594 24.140625 C 49.113281 19.9375 49.730469 17.835938 50.289062 17.835938 C 50.726562 17.835938 51.066406 18.402344 51.304688 19.539062 C 51.546875 20.6875 51.664062 21.519531 51.664062 22.039062 C 51.664062 22.558594 51.746094 22.820312 51.90625 22.820312 C 52.34375 22.820312 52.78125 22.347656 53.222656 21.402344 C 53.660156 20.464844 54.199219 19.523438 54.835938 18.582031 C 55.472656 17.644531 56.265625 17.175781 57.207031 17.175781 C 58.140625 17.175781 59.003906 17.523438 59.800781 18.21875 C 60.601562 18.925781 61.097656 19.777344 61.296875 20.777344 C 61.777344 20.097656 62.574219 19.15625 63.691406 17.957031 C 64.289062 17.113281 64.898438 16.695312 65.523438 16.695312 C 66.136719 16.695312 67.042969 16.996094 68.238281 17.59375 C 69.875 18.4375 70.691406 20.636719 70.691406 24.199219 C 70.691406 27.765625 70.570312 30.828125 70.332031 33.390625 L 70.332031 33.808594 C 70.332031 34.410156 70.453125 34.710938 70.691406 34.710938 C 71.050781 34.710938 71.929688 33.699219 73.324219 31.671875 C 74.71875 29.652344 75.578125 28.644531 75.898438 28.644531 C 76.457031 28.644531 76.734375 30.074219 76.734375 32.933594 C 76.734375 35.800781 75.71875 38.652344 73.683594 41.496094 C 72.726562 42.816406 71.90625 43.476562 71.230469 43.476562 L 70.570312 43.296875 C 68.976562 42.457031 67.839844 41.496094 67.160156 40.414062 C 66.484375 39.335938 66.144531 37.613281 66.144531 35.25 Z M 95.699219 35.191406 C 95.699219 41.277344 92.628906 44.320312 86.488281 44.320312 C 83.933594 44.320312 82.070312 43.65625 80.898438 42.335938 C 79.71875 41.015625 78.6875 38.992188 77.8125 36.273438 C 77.492188 35.230469 77.332031 34.117188 77.332031 32.933594 C 77.332031 31.753906 77.863281 30.179688 78.925781 28.199219 C 79.976562 26.214844 81.140625 24.480469 82.417969 23 C 82.578125 20.796875 83.078125 19.695312 83.914062 19.695312 C 84.351562 19.695312 84.652344 19.957031 84.8125 20.476562 C 85.648438 19.71875 86.667969 18.976562 87.863281 18.257812 C 89.058594 17.535156 90.136719 17.175781 91.09375 17.175781 C 92.050781 17.175781 93.039062 17.734375 94.0625 18.855469 C 95.074219 19.976562 95.582031 21.125 95.582031 22.304688 C 95.582031 23.488281 94.761719 25.101562 93.128906 27.144531 C 90.058594 30.988281 87.644531 32.910156 85.886719 32.910156 C 84.613281 32.910156 83.613281 31.847656 82.898438 29.726562 C 82.855469 29.804688 82.667969 30.132812 82.335938 30.710938 C 81.992188 31.296875 81.753906 31.726562 81.617188 32.007812 C 81.472656 32.289062 81.28125 32.667969 81.042969 33.148438 C 80.644531 34.070312 80.445312 34.890625 80.445312 35.609375 C 80.445312 37.253906 81.261719 38.074219 82.898438 38.074219 C 85.609375 38.074219 87.914062 37.5 89.8125 36.355469 C 91.703125 35.21875 93.585938 33.488281 95.460938 31.167969 C 95.621094 32.929688 95.699219 34.269531 95.699219 35.191406 M 85.949219 27.925781 C 86.585938 27.925781 87.535156 27.144531 88.796875 25.582031 C 90.046875 24.019531 90.675781 22.949219 90.675781 22.363281 C 90.675781 21.785156 90.46875 21.5 90.050781 21.5 C 89.628906 21.5 88.910156 22.019531 87.898438 23.058594 C 86.878906 24.101562 86.066406 25 85.46875 25.761719 C 85.390625 26.242188 85.351562 26.601562 85.351562 26.84375 C 85.351562 27.5625 85.550781 27.925781 85.949219 27.925781 Z M 111.4375 8.648438 C 111.4375 8.648438 111.21875 8.746094 110.777344 8.949219 C 110.339844 9.148438 110 9.246094 109.761719 9.246094 C 109.523438 9.246094 109.320312 9.195312 109.164062 9.09375 C 109.003906 8.996094 108.882812 8.828125 108.804688 8.585938 C 108.722656 8.347656 108.652344 8.113281 108.589844 7.890625 C 108.53125 7.675781 108.492188 7.394531 108.46875 7.050781 C 108.453125 6.714844 108.445312 6.445312 108.445312 6.246094 L 108.445312 4.625 C 108.445312 3.625 108.644531 3.121094 109.042969 3.121094 C 109.121094 3.121094 109.242188 3.164062 109.402344 3.242188 C 113.113281 1.722656 116.980469 0.960938 121.007812 0.960938 C 126.59375 0.960938 130.441406 2.722656 132.554688 6.246094 C 133.753906 8.289062 134.351562 10.230469 134.351562 12.070312 C 134.351562 13.910156 133.5 15.742188 131.800781 17.558594 C 130.113281 19.386719 127.691406 21.398438 124.539062 23.601562 C 131.199219 25.640625 135.128906 28.90625 136.324219 33.390625 C 136.566406 34.148438 136.683594 34.949219 136.683594 35.792969 C 136.683594 40.515625 132.4375 43.738281 123.941406 45.460938 C 122.34375 45.820312 121.050781 46 120.050781 46 C 119.054688 46 118.175781 45.773438 117.417969 45.316406 C 116.660156 44.851562 116.28125 44.25 116.28125 43.515625 C 116.28125 42.769531 116.523438 41.917969 117 40.957031 C 116.878906 39.632812 116.820312 37.984375 116.820312 36.007812 C 116.820312 34.023438 117.058594 31.289062 117.539062 27.804688 C 117.140625 27.765625 116.808594 27.605469 116.546875 27.324219 C 116.289062 27.042969 116.164062 26.691406 116.164062 26.265625 C 116.164062 25.851562 116.230469 25.261719 116.367188 24.5 C 116.511719 23.742188 116.601562 23.21875 116.640625 22.941406 C 116.839844 21.417969 117.4375 20.316406 118.4375 19.636719 C 118.953125 12.910156 119.273438 8.886719 119.394531 7.566406 C 117.558594 7.566406 115.996094 7.648438 114.703125 7.808594 C 113.402344 7.96875 112.3125 8.246094 111.4375 8.648438 M 128.964844 10.390625 C 128.964844 9.828125 128.277344 9.214844 126.894531 8.550781 C 125.523438 7.894531 123.28125 7.566406 120.171875 7.566406 C 121.40625 8.246094 122.027344 9.40625 122.027344 11.050781 L 122.027344 11.53125 C 121.828125 13.050781 121.726562 14.300781 121.726562 15.277344 C 121.726562 16.261719 121.746094 16.933594 121.785156 17.296875 C 126.574219 13.652344 128.964844 11.351562 128.964844 10.390625 M 131.121094 36.871094 C 131.957031 36.390625 132.375 35.804688 132.375 35.105469 C 132.375 34.402344 132.078125 33.667969 131.480469 32.910156 C 129.84375 30.828125 126.972656 29.164062 122.863281 27.925781 C 122.386719 27.765625 122.015625 27.683594 121.75 27.683594 C 121.496094 27.683594 121.25 27.742188 121.007812 27.863281 C 120.332031 31.707031 119.972656 34.769531 119.933594 37.050781 C 120.25 36.210938 120.878906 35.429688 121.8125 34.710938 C 122.753906 33.988281 123.523438 33.628906 124.121094 33.628906 C 124.71875 33.628906 125.019531 33.730469 125.019531 33.929688 C 125.019531 34.210938 124.570312 34.503906 123.675781 34.804688 C 122.777344 35.101562 122.054688 35.539062 121.511719 36.117188 C 120.976562 36.699219 120.710938 37.566406 120.710938 38.710938 C 120.710938 39.847656 121.25 40.414062 122.324219 40.414062 C 124.320312 40.414062 127.25 39.234375 131.121094 36.871094 Z M 154.875 29.605469 C 155.152344 29.605469 155.292969 30.4375 155.292969 32.105469 C 155.292969 33.761719 154.734375 35.429688 153.617188 37.113281 C 153.136719 38.074219 152.367188 39.183594 151.308594 40.4375 C 150.253906 41.703125 149.546875 42.476562 149.1875 42.757812 C 148.113281 43.519531 147.246094 43.898438 146.59375 43.898438 C 145.929688 43.898438 145.441406 43.859375 145.121094 43.777344 C 144.800781 43.699219 144.496094 43.527344 144.199219 43.261719 C 143.894531 43.003906 143.652344 42.804688 143.46875 42.660156 C 143.292969 42.523438 143.078125 42.246094 142.824219 41.820312 C 142.558594 41.402344 142.386719 41.136719 142.308594 41.015625 C 142.230469 40.894531 142.050781 40.574219 141.769531 40.054688 C 141.492188 39.535156 141.351562 39.253906 141.351562 39.214844 C 140.59375 37.8125 140.214844 36.480469 140.214844 35.214844 C 140.214844 33.957031 140.324219 32.777344 140.539062 31.671875 C 140.761719 30.574219 141.113281 29.226562 141.589844 27.625 C 142.070312 26.023438 142.367188 25 142.488281 24.5625 C 141.890625 25.320312 141.09375 26.144531 140.09375 27.023438 C 139.695312 27.34375 139.269531 27.503906 138.816406 27.503906 C 138.351562 27.503906 137.972656 27.292969 137.679688 26.867188 C 137.375 26.449219 136.984375 25.542969 136.503906 24.140625 C 136.027344 22.738281 135.789062 21.785156 135.789062 21.28125 C 135.789062 20.785156 136.105469 20.003906 136.746094 18.941406 C 137.382812 17.882812 137.761719 17.175781 137.882812 16.816406 C 138.082031 16.09375 138.378906 15.734375 138.777344 15.734375 C 138.976562 15.734375 139.457031 15.941406 140.214844 16.359375 C 140.972656 16.78125 141.472656 17.59375 141.710938 18.796875 C 141.789062 19.277344 141.96875 19.515625 142.25 19.515625 C 142.367188 19.515625 142.71875 19.296875 143.300781 18.855469 C 143.875 18.414062 144.515625 18.195312 145.214844 18.195312 C 145.910156 18.195312 146.957031 18.835938 148.351562 20.117188 C 148.832031 20.597656 149.070312 21.277344 149.070312 22.160156 C 149.070312 23.039062 149.019531 23.660156 148.914062 24.019531 C 148.820312 24.382812 148.710938 24.621094 148.589844 24.742188 C 148.230469 25.023438 147.964844 25.410156 147.789062 25.90625 C 147.605469 26.410156 147.0625 28.292969 146.160156 31.550781 C 145.269531 34.816406 144.820312 36.613281 144.820312 36.933594 C 144.820312 37.253906 144.941406 37.414062 145.179688 37.414062 C 145.5 37.414062 146.777344 36.453125 149.011719 34.53125 C 151.242188 32.609375 152.859375 31.1875 153.855469 30.265625 C 154.453125 29.824219 154.792969 29.605469 154.875 29.605469 Z M 173.121094 35.191406 C 173.121094 41.277344 170.050781 44.320312 163.90625 44.320312 C 161.355469 44.320312 159.488281 43.65625 158.308594 42.335938 C 157.136719 41.015625 156.109375 38.992188 155.230469 36.273438 C 154.914062 35.230469 154.753906 34.117188 154.753906 32.933594 C 154.753906 31.753906 155.28125 30.179688 156.332031 28.199219 C 157.394531 26.214844 158.5625 24.480469 159.839844 23 C 160 20.796875 160.496094 19.695312 161.335938 19.695312 C 161.773438 19.695312 162.074219 19.957031 162.234375 20.476562 C 163.070312 19.71875 164.085938 18.976562 165.285156 18.257812 C 166.480469 17.535156 167.558594 17.175781 168.515625 17.175781 C 169.472656 17.175781 170.457031 17.734375 171.46875 18.855469 C 172.492188 19.976562 173.003906 21.125 173.003906 22.304688 C 173.003906 23.488281 172.183594 25.101562 170.550781 27.144531 C 167.476562 30.988281 165.0625 32.910156 163.308594 32.910156 C 162.03125 32.910156 161.035156 31.847656 160.316406 29.726562 C 160.277344 29.804688 160.089844 30.132812 159.753906 30.710938 C 159.414062 31.296875 159.167969 31.726562 159.027344 32.007812 C 158.890625 32.289062 158.703125 32.667969 158.464844 33.148438 C 158.0625 34.070312 157.863281 34.890625 157.863281 35.609375 C 157.863281 37.253906 158.683594 38.074219 160.316406 38.074219 C 163.03125 38.074219 165.335938 37.5 167.234375 36.355469 C 169.125 35.21875 171.007812 33.488281 172.882812 31.167969 C 173.042969 32.929688 173.121094 34.269531 173.121094 35.191406 M 163.371094 27.925781 C 164.007812 27.925781 164.953125 27.144531 166.207031 25.582031 C 167.464844 24.019531 168.097656 22.949219 168.097656 22.363281 C 168.097656 21.785156 167.882812 21.5 167.460938 21.5 C 167.046875 21.5 166.328125 22.019531 165.308594 23.058594 C 164.292969 24.101562 163.488281 25 162.890625 25.761719 C 162.8125 26.242188 162.769531 26.601562 162.769531 26.84375 C 162.769531 27.5625 162.96875 27.925781 163.371094 27.925781 Z M 187.71875 23.71875 C 188.078125 23.71875 188.378906 23.71875 188.617188 23.71875 C 188.855469 23.71875 189.097656 23.730469 189.335938 23.746094 C 189.574219 23.769531 189.753906 23.789062 189.875 23.804688 C 189.992188 23.828125 190.140625 23.867188 190.316406 23.925781 C 190.5 23.988281 190.632812 24.070312 190.710938 24.164062 C 190.792969 24.269531 190.871094 24.382812 190.953125 24.5 C 191.152344 24.703125 191.25 24.960938 191.25 25.28125 C 191.25 25.601562 191.152344 26.703125 190.953125 28.585938 C 190.75 30.464844 190.652344 31.96875 190.652344 33.089844 C 190.652344 36.292969 190.871094 37.894531 191.308594 37.894531 C 191.46875 37.894531 191.667969 37.652344 191.910156 37.171875 C 193.105469 34.730469 193.703125 31.40625 193.703125 27.203125 C 193.703125 23.078125 193.511719 20.617188 193.128906 19.816406 C 192.753906 19.015625 192.386719 18.464844 192.027344 18.160156 C 191.667969 17.863281 191.339844 17.59375 191.035156 17.355469 C 190.738281 17.113281 190.59375 16.933594 190.59375 16.816406 C 190.59375 16.414062 190.929688 16.214844 191.609375 16.214844 L 192.507812 16.214844 C 193.382812 16.253906 194.121094 16.914062 194.71875 18.195312 C 197.195312 23.441406 198.429688 28.445312 198.429688 33.207031 C 198.429688 35.410156 198.191406 37.414062 197.710938 39.214844 C 196.792969 42.535156 195.199219 44.199219 192.925781 44.199219 C 192.046875 44.199219 191.128906 43.847656 190.171875 43.140625 C 189.214844 42.445312 188.488281 41.535156 187.996094 40.414062 C 187.492188 39.292969 187.082031 37.832031 186.761719 36.03125 C 186.324219 37.472656 185.605469 39.082031 184.609375 40.859375 C 183.613281 42.644531 182.675781 43.539062 181.796875 43.539062 C 181.476562 43.539062 181.160156 43.417969 180.839844 43.175781 C 178.367188 41.335938 177.128906 38.09375 177.128906 33.449219 C 177.128906 30.925781 177.46875 28.585938 178.148438 26.421875 C 178.386719 25.742188 178.84375 24.480469 179.523438 22.640625 C 178.007812 23.640625 176.898438 24.140625 176.195312 24.140625 C 175.503906 24.140625 174.957031 23.699219 174.558594 22.820312 C 174 21.617188 173.71875 20.015625 173.71875 18.015625 C 173.71875 17.535156 173.917969 17.296875 174.316406 17.296875 L 175.15625 17.414062 C 175.554688 17.414062 176.414062 17.09375 177.730469 16.453125 C 179.042969 15.8125 179.941406 15.492188 180.421875 15.492188 C 181.539062 15.492188 182.457031 16.183594 183.171875 17.558594 C 183.890625 18.945312 184.25 20.085938 184.25 20.980469 C 184.25 21.886719 184.152344 22.808594 183.949219 23.746094 C 183.75 24.691406 183.273438 26.542969 182.515625 29.304688 C 181.4375 33.269531 180.898438 35.480469 180.898438 35.933594 C 180.898438 36.398438 180.980469 36.632812 181.140625 36.632812 C 181.296875 36.632812 181.519531 36.433594 181.796875 36.03125 C 183.390625 33.550781 184.789062 29.925781 185.984375 25.160156 C 186.222656 24.199219 186.804688 23.71875 187.71875 23.71875 Z M 187.71875 23.71875 "/>
</g>
</svg>
